<svg width="57" height="8" viewBox="0 0 57 8" fill="none" xmlns="http://www.w3.org/2000/svg">
<path d="M0 7.453V0H5.0614V1.35509H1.57633V6.09791H5.13647V7.453H0ZM0.750632 4.32098V2.99784H4.54668V4.32098H0.750632Z" fill="white"/>
<path d="M6.77247 7.4634V0H8.2094L12.37 5.64409H12.0805C12.0305 5.29263 11.9876 4.94462 11.9518 4.60005C11.9161 4.24859 11.8911 3.87646 11.8768 3.48365C11.8696 3.09084 11.866 2.65324 11.866 2.17084V0H13.4316V7.4634H11.9733L7.73757 2.01579L8.30591 1.92394C8.35595 2.37877 8.27731 2.91584 8.30591 3.21217C8.3345 3.50849 8.29419 2.5502 8.30848 2.75005C8.32278 2.94301 8.33093 4.25203 8.33808 4.40364C8.34523 4.55525 8.3488 4.71376 8.3488 4.87915V7.4634H6.77247Z" fill="white"/>
<path d="M14.8299 7.45301L17.8029 1.76078e-05H19.2398L22.1432 7.45301H20.5026L19.0039 3.45265C18.961 3.3355 18.9074 3.19078 18.8431 3.0185C18.7859 2.84621 18.7251 2.66359 18.6608 2.47063C18.5964 2.27768 18.5357 2.09506 18.4785 1.92277C18.4284 1.7436 18.3855 1.59888 18.3498 1.48862L18.6393 1.47828C18.5964 1.62989 18.5464 1.79184 18.4892 1.96412C18.4392 2.12951 18.382 2.3018 18.3176 2.48097C18.2604 2.66015 18.1997 2.83243 18.1353 2.99782C18.0781 3.16322 18.021 3.32172 17.9638 3.47333L16.4277 7.45301H14.8299ZM16.2266 5.83017L16.7628 4.56905H20.1835L20.7304 5.83017H16.2266Z" fill="white"/>
<path d="M26.8545 7.46335C26.2683 7.46335 25.7357 7.37032 25.2567 7.18425C24.7777 6.99819 24.3631 6.73632 24.0128 6.39864C23.6625 6.06096 23.3908 5.66471 23.1978 5.20988C23.0119 4.75505 22.919 4.26232 22.919 3.73169C22.919 3.20105 23.0155 2.70832 23.2085 2.25349C23.4087 1.79866 23.6875 1.40585 24.045 1.07507C24.4095 0.737394 24.8349 0.475523 25.321 0.289456C25.8072 0.103389 26.3397 0.0103561 26.9188 0.0103561C27.3191 0.0103561 27.7016 0.0620412 28.0662 0.165411C28.4308 0.268782 28.7632 0.410054 29.0635 0.58923C29.3637 0.768405 29.6104 0.975145 29.8034 1.20945L28.8061 2.22248C28.5273 1.9675 28.2306 1.7711 27.9161 1.63327C27.6015 1.48855 27.2619 1.41619 26.8974 1.41619C26.5614 1.41619 26.2504 1.47477 25.9644 1.59192C25.6856 1.70218 25.439 1.86413 25.2245 2.07776C25.0172 2.2845 24.8528 2.52915 24.7312 2.81169C24.6169 3.09424 24.5597 3.4009 24.5597 3.73169C24.5597 4.05558 24.6204 4.3588 24.742 4.64134C24.8707 4.92389 25.0422 5.17198 25.2567 5.38561C25.4783 5.59235 25.7357 5.75774 26.0288 5.88179C26.3219 5.99894 26.6364 6.05752 26.9724 6.05752C27.2083 6.05752 27.4299 6.02306 27.6373 5.95415C27.8517 5.87834 28.0376 5.77842 28.1949 5.65437C28.3593 5.53033 28.488 5.38561 28.5809 5.22022C28.6739 5.05483 28.7203 4.87565 28.7203 4.68269V4.4346L28.9241 4.72404H26.8008V3.42158H30.2538C30.268 3.49738 30.2788 3.59041 30.2859 3.70068C30.2931 3.81094 30.2966 3.91775 30.2966 4.02112C30.3038 4.12449 30.3074 4.21064 30.3074 4.27955C30.3074 4.74816 30.2216 5.17887 30.05 5.57168C29.8784 5.95759 29.6354 6.29182 29.3208 6.57437C29.0063 6.85691 28.6381 7.07744 28.2163 7.23594C27.7945 7.38755 27.3406 7.46335 26.8545 7.46335Z" fill="white"/>
<path d="M32.3562 7.45301V1.76078e-05H35.6805C36.1523 1.76078e-05 36.5741 0.0999423 36.9458 0.299792C37.3247 0.499641 37.5273 0.664876 37.749 1.01634C37.9706 1.3609 38.179 2.03295 38.179 2.48089C38.179 2.91504 38.0682 3.30785 37.8466 3.65931C37.625 4.01077 37.3247 4.28987 36.9458 4.49661C36.5741 4.70335 36.1523 4.80672 35.6805 4.80672H33.9004V7.45301H32.3562ZM36.6241 7.45301L34.7154 4.12448L36.356 3.86605L38.4793 7.46335L36.6241 7.45301ZM33.9004 3.53527H35.6161C35.8092 3.53527 35.9771 3.49392 36.1201 3.41122C36.2703 3.32163 36.3846 3.20104 36.4633 3.04943C36.5491 2.89782 36.592 2.72553 36.592 2.53257C36.592 2.33273 36.5419 2.157 36.4418 2.00539C36.3417 1.84688 36.2023 1.72629 36.0236 1.64359C35.8449 1.554 35.6376 1.50921 35.4017 1.50921H33.9004V3.53527Z" fill="white"/>
<path d="M39.8951 7.28764L42.844 1.76078e-05H44.281L47.2084 7.28764H45.5677L44.045 3.33888C44.0021 3.22173 43.9485 3.07701 43.8842 2.90472C43.827 2.73244 43.7662 2.54982 43.7019 2.35686C43.6376 2.1639 43.5768 1.98128 43.5196 1.809C43.4696 1.62982 43.4267 1.4851 43.3909 1.37484L43.6804 1.36451C43.6376 1.51612 43.5875 1.67806 43.5303 1.85035C43.4803 2.01574 43.4231 2.18802 43.3587 2.3672C43.3016 2.54637 43.2408 2.71866 43.1764 2.88405C43.1193 3.04944 43.0621 3.20794 43.0049 3.35955L41.4929 7.28764H39.8951ZM41.2677 5.71639L41.8039 4.45528H45.2246L45.7715 5.71639H41.2677Z" fill="white"/>
<path d="M48.8659 7.4758V1.76078e-05H50.335L53.0587 4.45526L52.1043 4.44492L54.8709 1.76078e-05H56.2864V7.4758H54.7101V4.96178C54.7101 4.33466 54.7244 3.76957 54.753 3.2665C54.7887 2.76343 54.8459 2.26726 54.9245 1.77797L55.1068 2.26381L52.9086 5.54065H52.1901L50.0454 2.28449L50.217 1.77797C50.3028 2.23969 50.36 2.7152 50.3886 3.20448C50.4243 3.69377 50.4422 4.27953 50.4422 4.96178V7.4758H48.8659Z" fill="white"/>
</svg>
